<svg xmlns="http://www.w3.org/2000/svg" viewBox="0 0 70.54 81.45">
    <defs>
        <style>.cls-1{fill:#f39200;}.cls-2,.cls-3{fill:none;stroke:#f39200;stroke-miterlimit:10;}.cls-2{stroke-width:4px;}.cls-3{stroke-width:7px;}</style>
    </defs>
    <g id="Lager_2" data-name="Lager 2">
        <g id="Lager_1-2" data-name="Lager 1">
            <path class="cls-1" d="M8.71,38.31a17.62,17.62,0,0,0-.29,3.14c0,8.53,5.72,14.6,14.35,14.6a14.94,14.94,0,1,0,0-29.88,14.35,14.35,0,0,0-10,3.89L17,34.27h0A8.17,8.17,0,0,1,22.77,32a9.1,9.1,0,0,1,0,18.2c-4.48,0-7.52-2.55-8.15-6.07h8.15V38.31Z"/>
            <polygon 
                class="cls-2" 
                points="2 21.52 35.27 2.31 68.54 21.52 68.54 59.93 35.27 79.14 2 59.93 2 21.52"/>
            <circle class="cls-3" cx="46.74" cy="41.11" r="11.47"/>
        </g>
    </g>
</svg>